<svg xmlns="http://www.w3.org/2000/svg" xmlns:xlink="http://www.w3.org/1999/xlink" width="1080" zoomAndPan="magnify" viewBox="0 0 810 809.999993" height="1080" preserveAspectRatio="xMidYMid meet" version="1.0"><defs><filter x="0%" y="0%" width="100%" height="100%" id="5f9cac92a2"><feColorMatrix values="0 0 0 0 1 0 0 0 0 1 0 0 0 0 1 0 0 0 1 0" color-interpolation-filters="sRGB"/></filter><mask id="2b5d0ddca4"><g filter="url(#5f9cac92a2)"><rect x="-81" width="972" fill="#000000" y="-80.999999" height="971.999992" fill-opacity="0.2588"/></g></mask><clipPath id="954cff31c5"><path d="M 187 0.511719 L 651 0.511719 L 651 143 L 187 143 Z M 187 0.511719 " clip-rule="nonzero"/></clipPath><clipPath id="54c537c1dc"><path d="M 0 231 L 474 231 L 474 374.011719 L 0 374.011719 Z M 0 231 " clip-rule="nonzero"/></clipPath><clipPath id="954fb79612"><path d="M 696 140 L 787.5 140 L 787.5 234 L 696 234 Z M 696 140 " clip-rule="nonzero"/></clipPath><clipPath id="8ee8927968"><rect x="0" width="788" y="0" height="375"/></clipPath><mask id="c3c33e20e4"><g filter="url(#5f9cac92a2)"><rect x="-81" width="972" fill="#000000" y="-80.999999" height="971.999992" fill-opacity="0.9882"/></g></mask><clipPath id="f975f05c9f"><path d="M 0.449219 202 L 328 202 L 328 474 L 0.449219 474 Z M 0.449219 202 " clip-rule="nonzero"/></clipPath><clipPath id="9bbc29bb24"><path d="M 232 0.3125 L 427 0.3125 L 427 129 L 232 129 Z M 232 0.3125 " clip-rule="nonzero"/></clipPath><clipPath id="579bbd23b8"><path d="M 250 147 L 473.699219 147 L 473.699219 417 L 250 417 Z M 250 147 " clip-rule="nonzero"/></clipPath><clipPath id="c28430445e"><rect x="0" width="474" y="0" height="475"/></clipPath></defs><g mask="url(#2b5d0ddca4)"><g transform="matrix(1, 0, 0, 1, 0, 228)"><g clip-path="url(#8ee8927968)"><g clip-path="url(#954cff31c5)"><path fill="#77b429" d="M 285.449219 78.082031 C 448.71875 19.246094 599.140625 20.164062 621.421875 80.132812 C 628.183594 98.328125 622.347656 119.878906 606.402344 142.707031 C 643.097656 102.109375 659.007812 64.585938 646.429688 37.628906 C 634.734375 12.5625 600.214844 0.484375 551.453125 0.515625 C 480.1875 0.5625 378.507812 26.480469 273.21875 75.546875 C 242.671875 89.78125 213.820312 105.03125 187.125 120.847656 C 217.007812 105.335938 250.074219 90.828125 285.449219 78.082031 Z M 285.449219 78.082031 " fill-opacity="1" fill-rule="nonzero"/></g><g clip-path="url(#54c537c1dc)"><path fill="#77b429" d="M 366.144531 295.25 C 202.871094 354.082031 52.453125 353.171875 30.167969 293.199219 C 23.492188 275.230469 29.085938 253.996094 44.578125 231.488281 C 7.671875 272.214844 -8.359375 309.863281 4.253906 336.894531 C 15.941406 361.945312 50.425781 374.027344 99.140625 374.011719 L 99.304688 374.011719 C 170.570312 373.949219 272.214844 348.035156 377.46875 298.984375 C 411.824219 282.976562 444.027344 265.671875 473.4375 247.734375 C 441.253906 265.035156 405.097656 281.210938 366.144531 295.25 Z M 366.144531 295.25 " fill-opacity="1" fill-rule="nonzero"/></g><path fill="#000000" d="M 559.648438 226.59375 L 559.648438 232.007812 L 495.742188 232.007812 L 551.105469 146.726562 L 501.039062 146.726562 L 501.035156 141.316406 L 561.214844 141.3125 L 505.851562 226.59375 Z M 559.648438 226.59375 " fill-opacity="1" fill-rule="nonzero"/><path fill="#000000" d="M 631.136719 141.3125 L 636.914062 141.316406 L 636.914062 197.847656 C 636.914062 207.109375 636.917969 215.050781 630.777344 222.625 C 624.640625 229.601562 615.25 233.210938 606.105469 233.210938 C 596.960938 233.207031 587.566406 229.601562 581.433594 222.625 C 575.292969 215.050781 575.296875 207.109375 575.289062 197.84375 L 575.292969 141.3125 L 581.070312 141.3125 L 581.070312 196.160156 C 581.066406 204.339844 581.070312 213 585.765625 219.019531 C 590.21875 224.792969 599.125 227.796875 606.105469 227.796875 C 613.085938 227.792969 621.996094 224.789062 626.445312 219.019531 C 631.136719 213 631.136719 204.34375 631.140625 196.164062 Z M 631.136719 141.3125 " fill-opacity="1" fill-rule="nonzero"/><path fill="#000000" d="M 665.078125 226.59375 L 688.183594 226.59375 L 688.183594 232.003906 L 659.296875 232.007812 L 659.300781 141.316406 L 665.078125 141.316406 Z M 665.078125 226.59375 " fill-opacity="1" fill-rule="nonzero"/><g clip-path="url(#954fb79612)"><path fill="#000000" d="M 787.476562 188.34375 C 787.71875 199.769531 786.035156 209.753906 777.96875 218.535156 C 769.300781 227.917969 756.304688 233.210938 743.546875 233.210938 C 718.394531 233.207031 696.964844 212.039062 696.96875 187.019531 C 696.96875 161.039062 718.269531 140.109375 744.269531 140.113281 C 760.757812 140.109375 774.117188 148.289062 783.625 161.28125 L 778.929688 165.011719 C 770.863281 152.980469 758.59375 145.523438 743.910156 145.523438 C 721.765625 145.523438 702.75 164.890625 702.75 186.660156 C 702.746094 209.035156 721.28125 227.796875 743.910156 227.800781 C 753.660156 227.796875 763.160156 223.828125 770.625 217.816406 C 778.445312 211.199219 781.335938 203.617188 781.699219 193.757812 L 749.203125 193.757812 L 749.203125 188.34375 Z M 787.476562 188.34375 " fill-opacity="1" fill-rule="nonzero"/></g><path fill="#949494" d="M 221.914062 145.984375 L 222.300781 145.984375 C 230.382812 134.050781 240.207031 130.011719 253.878906 130.007812 C 280.453125 130.007812 291.042969 146.753906 291.042969 171 L 291.042969 232.007812 L 256 232.003906 L 255.996094 183.894531 C 255.996094 174.464844 257.539062 157.914062 240.207031 157.914062 C 225.957031 157.914062 221.914062 168.5 221.914062 180.816406 L 221.914062 232.003906 L 186.867188 232.003906 L 186.867188 133.28125 L 221.914062 133.277344 Z M 221.914062 145.984375 " fill-opacity="1" fill-rule="nonzero"/><path fill="#949494" d="M 410.335938 184.859375 C 410.332031 151.179688 390.5 130.007812 356.222656 130.007812 C 324.0625 130.007812 301.53125 149.832031 301.53125 182.738281 C 301.535156 216.800781 325.988281 235.277344 358.722656 235.277344 C 381.253906 235.273438 403.398438 224.691406 408.988281 201.40625 L 375.285156 201.40625 C 371.433594 207.949219 366.042969 210.453125 358.53125 210.453125 C 344.089844 210.453125 336.582031 202.753906 336.582031 188.511719 L 410.332031 188.511719 Z M 337.160156 168.304688 C 339.277344 158.105469 347.75 152.71875 357.953125 152.71875 C 367.390625 152.71875 376.054688 158.878906 377.789062 168.308594 Z M 337.160156 168.304688 " fill-opacity="1" fill-rule="nonzero"/><path fill="#949494" d="M 460.648438 232.007812 L 425.601562 232.003906 L 425.601562 162.148438 L 414.242188 162.148438 L 414.242188 133.28125 L 425.601562 133.28125 L 425.601562 103.644531 L 460.648438 103.644531 L 460.648438 133.28125 L 480.484375 133.277344 L 480.484375 162.148438 L 460.648438 162.144531 Z M 460.648438 232.007812 " fill-opacity="1" fill-rule="nonzero"/></g></g></g><g mask="url(#c3c33e20e4)"><g transform="matrix(1, 0, 0, 1, 185, 128)"><g clip-path="url(#c28430445e)"><g clip-path="url(#f975f05c9f)"><path fill="#7ed957" d="M 82.039062 202.992188 L 246.101562 202.933594 C 246.65625 211.621094 246.160156 220.25 244.605469 228.816406 C 243.054688 237.382812 240.492188 245.636719 236.921875 253.578125 C 232.992188 260.851562 228.402344 267.6875 223.15625 274.082031 C 218.734375 279.484375 213.890625 284.484375 208.625 289.074219 C 207.367188 292.707031 206.5 296.429688 206.027344 300.246094 C 205.535156 304.160156 205.136719 307.3125 206.027344 311.414062 C 206.617188 314.667969 207.890625 317.625 209.847656 320.289062 C 211.566406 322.550781 213.65625 324.386719 216.121094 325.796875 C 218.597656 326.5 222.023438 327.542969 226.0625 328.855469 C 237.800781 332.714844 249.222656 337.355469 260.324219 342.78125 C 273.34375 349.121094 285.734375 356.515625 297.496094 364.964844 C 307.46875 372.15625 311.289062 376.042969 314.167969 379.503906 C 319.621094 386.089844 323.722656 393.433594 326.464844 401.535156 L 327.015625 423.566406 C 326.269531 429.074219 324.332031 434.125 321.203125 438.714844 C 319.898438 440.597656 318.417969 442.332031 316.765625 443.917969 C 309.839844 449.351562 302.34375 453.839844 294.28125 457.382812 C 291.773438 458.484375 286.113281 460.839844 275.316406 463.65625 C 264.101562 466.566406 252.730469 468.609375 241.207031 469.777344 C 212.023438 472.867188 181.980469 473.570312 169.773438 473.753906 C 145.882812 474.121094 125.722656 473.171875 110.425781 472.070312 C 106.144531 471.765625 82.832031 469.988281 54.75 463.960938 C 43.816406 461.515625 33.417969 457.636719 23.546875 452.332031 C 15.503906 448.019531 10.945312 444.316406 7.335938 439.328125 C 4.058594 434.75 1.863281 429.699219 0.757812 424.179688 C 0.664062 417.660156 0.542969 411.113281 0.449219 404.59375 C 1.171875 400.875 2.34375 397.304688 3.96875 393.882812 C 5.625 390.476562 7.664062 387.3125 10.085938 384.398438 C 16.234375 376.777344 22.691406 371.730469 26.148438 369.097656 C 33.214844 363.710938 41.445312 357.46875 54.140625 350.125 C 65.886719 343.332031 75.339844 339.109375 82.589844 335.894531 C 91.949219 331.765625 100.085938 328.644531 106.296875 326.410156 C 108.867188 325.765625 113.121094 324.234375 116.546875 320.441406 C 122.082031 314.351562 121.867188 306.457031 121.746094 301.929688 C 121.613281 297.476562 120.695312 293.191406 118.992188 289.074219 C 116.605469 286.839844 113.332031 283.628906 109.664062 279.589844 C 105.992188 275.550781 100.578125 269.613281 96.050781 262.605469 C 86.839844 248.375 84.425781 234.300781 83.199219 226.648438 C 81.9375 218.808594 81.550781 210.921875 82.039062 202.992188 Z M 82.039062 202.992188 " fill-opacity="1" fill-rule="nonzero"/></g><path fill="#7ed957" d="M 48.234375 183.132812 C 47.625 175.359375 48.847656 169.453125 49.917969 165.84375 C 51.445312 160.609375 53.128906 158.46875 54.292969 157.277344 C 56.738281 154.765625 59.707031 153.511719 60.929688 152.992188 C 62.5625 152.308594 64.257812 151.839844 66.007812 151.582031 C 66.867188 151.523438 67.652344 151.246094 68.363281 150.757812 C 69.082031 150.265625 69.625 149.621094 69.984375 148.828125 C 69.953125 141.609375 70.8125 121.625 84.578125 102.101562 C 100.851562 79.027344 124.070312 72.234375 130.464844 70.582031 C 131.523438 72.074219 132.472656 73.636719 133.308594 75.265625 C 134.234375 77.085938 135 78.972656 135.605469 80.925781 C 139.4375 98.59375 143.28125 116.257812 147.136719 133.925781 C 147.199219 110.300781 147.269531 86.667969 147.351562 63.023438 C 147.722656 61.273438 148.519531 59.742188 149.738281 58.433594 C 151.171875 56.929688 152.90625 55.960938 154.9375 55.527344 L 172.375 55.375 C 173.328125 55.558594 174.234375 55.878906 175.09375 56.332031 C 175.949219 56.785156 176.726562 57.351562 177.421875 58.03125 C 178.113281 58.710938 178.695312 59.476562 179.164062 60.324219 C 179.632812 61.175781 179.96875 62.074219 180.175781 63.023438 L 180.542969 133.007812 C 182.5625 122.238281 184.855469 111.097656 187.519531 99.652344 C 189.230469 92.277344 191.035156 85.085938 192.871094 78.078125 C 193.226562 76.46875 193.800781 74.9375 194.585938 73.488281 C 195.261719 72.292969 196.054688 71.179688 196.96875 70.152344 C 199.601562 70.867188 202.191406 71.707031 204.738281 72.675781 C 207.285156 73.644531 209.777344 74.734375 212.21875 75.949219 C 214.65625 77.164062 217.03125 78.496094 219.339844 79.945312 C 221.648438 81.394531 223.882812 82.953125 226.035156 84.621094 C 228.191406 86.289062 230.257812 88.058594 232.242188 89.929688 C 234.222656 91.804688 236.105469 93.769531 237.890625 95.828125 C 239.679688 97.886719 241.359375 100.027344 242.9375 102.25 C 244.511719 104.476562 245.972656 106.769531 247.324219 109.140625 C 256.378906 125.234375 257.601562 140.75 257.632812 149.226562 C 257.910156 149.882812 258.308594 150.449219 258.832031 150.929688 C 259.355469 151.410156 259.957031 151.761719 260.632812 151.980469 C 263.105469 151.933594 265.46875 152.414062 267.730469 153.417969 C 270.214844 154.554688 272.316406 156.1875 274.03125 158.316406 C 274.886719 159.355469 276.660156 161.773438 278.128906 167.800781 C 279.332031 172.835938 279.769531 177.9375 279.445312 183.101562 Z M 48.234375 183.132812 " fill-opacity="1" fill-rule="nonzero"/><g clip-path="url(#9bbc29bb24)"><path fill="#7ed957" d="M 232.578125 45.796875 C 235.28125 42.089844 238.277344 38.636719 241.570312 35.441406 C 244.859375 32.246094 248.394531 29.351562 252.179688 26.761719 C 255.960938 24.167969 259.9375 21.914062 264.101562 19.996094 C 268.269531 18.082031 272.566406 16.53125 276.996094 15.347656 C 278.421875 17.601562 279.675781 19.949219 280.761719 22.386719 C 282.3125 25.804688 283.503906 29.34375 284.339844 33.003906 C 285.59375 38.972656 288.101562 50.996094 289.328125 56.964844 L 293.914062 78.9375 L 293.824219 9.683594 C 294.113281 7.695312 294.878906 5.910156 296.117188 4.332031 C 297.609375 2.46875 299.496094 1.195312 301.777344 0.503906 L 318.753906 0.503906 C 320.542969 0.917969 322.125 1.734375 323.496094 2.953125 C 325.261719 4.554688 326.382812 6.523438 326.863281 8.859375 C 326.945312 31.972656 327.046875 55.078125 327.167969 78.171875 L 333.59375 44.265625 C 334.757812 36.425781 337 28.90625 340.320312 21.710938 C 341.453125 19.261719 342.648438 17.03125 343.839844 14.980469 C 347.828125 16.183594 351.703125 17.683594 355.464844 19.476562 C 363.914062 23.566406 371.558594 28.820312 378.410156 35.238281 C 382.878906 39.289062 386.855469 43.777344 390.339844 48.703125 C 397.3125 58.585938 400.21875 67.429688 400.894531 69.511719 C 403.421875 77.476562 404.546875 85.636719 404.257812 93.992188 C 404.328125 94.605469 404.5625 95.144531 404.960938 95.613281 C 405.582031 96.363281 406.378906 96.773438 407.347656 96.839844 C 409.636719 97.128906 411.835938 97.730469 413.957031 98.644531 C 415.621094 99.335938 417.179688 100.210938 418.636719 101.273438 C 422.277344 104.121094 423.53125 108.191406 424.664062 111.984375 C 426.136719 117.101562 426.574219 122.304688 425.976562 127.59375 L 294.433594 128.113281 L 292.078125 125.449219 C 289.710938 113.070312 285.394531 101.414062 279.140625 90.472656 C 264.363281 64.707031 243.132812 51.425781 232.578125 45.796875 Z M 232.578125 45.796875 " fill-opacity="1" fill-rule="nonzero"/></g><g clip-path="url(#579bbd23b8)"><path fill="#7ed957" d="M 310.128906 147.390625 L 392.632812 147.667969 C 393.210938 157.75 392.425781 167.726562 390.277344 177.59375 C 388.554688 186.046875 385.769531 194.136719 381.925781 201.863281 C 374.21875 217.191406 363.542969 227.503906 355.402344 233.902344 C 354.914062 235.738281 354.425781 237.632812 353.933594 239.5625 C 353.445312 241.492188 352.863281 244.121094 352.40625 246.292969 C 352.375 249.261719 352.34375 252.230469 352.34375 255.167969 C 352.402344 256.085938 352.527344 256.992188 352.722656 257.890625 C 352.914062 258.789062 353.175781 259.664062 353.496094 260.523438 C 353.820312 261.382812 354.207031 262.214844 354.65625 263.015625 C 355.101562 263.816406 355.605469 264.582031 356.167969 265.308594 C 356.730469 266.035156 357.339844 266.71875 358.003906 267.351562 C 358.664062 267.988281 359.371094 268.570312 360.121094 269.101562 C 360.871094 269.632812 361.652344 270.105469 362.472656 270.519531 C 363.292969 270.933594 364.136719 271.285156 365.007812 271.570312 C 367.855469 272.367188 371.769531 273.46875 376.359375 275 C 380.214844 276.285156 391.195312 280.015625 406.613281 287.636719 C 416.679688 292.625 427.660156 298.132812 440.664062 307.527344 C 440.664062 307.527344 450.023438 314.320312 460.851562 325.398438 C 464.125 328.734375 467.03125 331.976562 469.511719 336.8125 C 471.542969 340.777344 472.910156 344.960938 473.609375 349.359375 L 473.699219 368.027344 C 473.347656 370.347656 472.777344 372.613281 471.992188 374.824219 C 471.207031 377.039062 470.222656 379.15625 469.035156 381.179688 C 467.847656 383.207031 466.484375 385.101562 464.9375 386.867188 C 463.390625 388.632812 461.691406 390.238281 459.84375 391.679688 C 450.484375 397.867188 440.5 402.78125 429.894531 406.429688 C 419.066406 410.164062 410.46875 411.511719 398.84375 413.378906 C 387.277344 415.242188 375.640625 416.445312 363.9375 416.988281 L 363.753906 401.257812 C 362.808594 393.667969 360.808594 386.363281 357.757812 379.347656 C 356.566406 376.59375 353.722656 370.476562 347.816406 362.519531 C 345.707031 359.640625 337.476562 348.871094 319.0625 335.128906 C 304.46875 324.265625 292.050781 317.902344 280.363281 312.027344 C 268.675781 306.152344 257.785156 301.53125 250.230469 298.5625 C 252.671875 295.847656 254.988281 293.03125 257.183594 290.113281 C 259.378906 287.199219 261.445312 284.191406 263.378906 281.09375 C 265.3125 277.996094 267.105469 274.820312 268.761719 271.570312 C 270.417969 268.316406 271.929688 264.996094 273.296875 261.609375 C 274.664062 258.222656 275.878906 254.785156 276.945312 251.292969 C 278.011719 247.804688 278.925781 244.269531 279.683594 240.699219 C 280.445312 237.128906 281.046875 233.53125 281.492188 229.90625 C 281.9375 226.285156 282.222656 222.648438 282.351562 219 C 286.144531 218.691406 299.667969 217.070312 308.660156 206.144531 C 317.652344 195.222656 316.917969 181.972656 316.613281 175.054688 C 316.308594 168.140625 314.625 161.253906 314.167969 159.480469 C 313.132812 155.34375 311.785156 151.316406 310.128906 147.390625 Z M 310.128906 147.390625 " fill-opacity="1" fill-rule="nonzero"/></g></g></g></g></svg>