<svg xmlns="http://www.w3.org/2000/svg" xmlns:xlink="http://www.w3.org/1999/xlink" width="1080" zoomAndPan="magnify" viewBox="0 0 810 809.999993" height="1080" preserveAspectRatio="xMidYMid meet" version="1.0"><defs><filter x="0%" y="0%" width="100%" height="100%" id="6a25cdf50a"><feColorMatrix values="0 0 0 0 1 0 0 0 0 1 0 0 0 0 1 0 0 0 1 0" color-interpolation-filters="sRGB"/></filter><clipPath id="bf0ba1ab07"><path d="M 283.5 192.375 L 526.5 192.375 L 526.5 405 L 283.5 405 Z M 283.5 192.375 " clip-rule="nonzero"/></clipPath><clipPath id="a8cdb187b1"><path d="M 405 405 L 283.5 192.375 L 526.5 192.375 L 405 405 " clip-rule="nonzero"/></clipPath><clipPath id="ee6d278448"><path d="M 175.554688 0 L 634.445312 0 L 634.445312 346 L 175.554688 346 Z M 175.554688 0 " clip-rule="nonzero"/></clipPath><mask id="dfe7613e87"><g filter="url(#6a25cdf50a)"><rect x="-81" width="972" fill="#000000" y="-80.999999" height="971.999992" fill-opacity="0.9882"/></g></mask><clipPath id="3128918f0c"><path d="M 0.160156 123 L 199 123 L 199 288.644531 L 0.160156 288.644531 Z M 0.160156 123 " clip-rule="nonzero"/></clipPath><clipPath id="49c62ef069"><path d="M 141 0.644531 L 260 0.644531 L 260 79 L 141 79 Z M 141 0.644531 " clip-rule="nonzero"/></clipPath><clipPath id="1537420a26"><path d="M 152 90 L 288.160156 90 L 288.160156 254 L 152 254 Z M 152 90 " clip-rule="nonzero"/></clipPath><clipPath id="61eb645d57"><rect x="0" width="289" y="0" height="290"/></clipPath></defs><g clip-path="url(#bf0ba1ab07)"><g clip-path="url(#a8cdb187b1)"><path fill="#ffffff" d="M 526.5 405 L 283.5 405 L 283.5 192.375 L 526.5 192.375 Z M 526.5 405 " fill-opacity="1" fill-rule="nonzero"/></g></g><g clip-path="url(#ee6d278448)"><path fill="#ffffff" d="M 175.554688 0 L 634.976562 0 L 634.976562 345.515625 L 175.554688 345.515625 Z M 175.554688 0 " fill-opacity="1" fill-rule="nonzero"/></g><g mask="url(#dfe7613e87)"><g transform="matrix(1, 0, 0, 1, 261, 29)"><g clip-path="url(#61eb645d57)"><g clip-path="url(#3128918f0c)"><path fill="#7ed957" d="M 49.8125 123.792969 L 149.652344 123.753906 C 149.992188 129.035156 149.6875 134.277344 148.742188 139.480469 C 147.800781 144.6875 146.242188 149.703125 144.066406 154.527344 C 141.675781 158.945312 138.882812 163.097656 135.691406 166.984375 C 133 170.269531 130.050781 173.304688 126.847656 176.09375 C 126.082031 178.300781 125.554688 180.5625 125.265625 182.878906 C 124.96875 185.261719 124.726562 187.175781 125.265625 189.667969 C 125.625 191.644531 126.402344 193.441406 127.59375 195.058594 C 128.636719 196.433594 129.910156 197.550781 131.410156 198.40625 C 132.917969 198.832031 135 199.464844 137.460938 200.265625 C 144.601562 202.609375 151.554688 205.429688 158.308594 208.726562 C 166.234375 212.578125 173.773438 217.070312 180.929688 222.207031 C 187 226.574219 189.324219 228.9375 191.074219 231.039062 C 194.394531 235.039062 196.890625 239.5 198.558594 244.425781 L 198.894531 257.8125 C 198.441406 261.15625 197.261719 264.226562 195.355469 267.015625 C 194.5625 268.160156 193.664062 269.210938 192.65625 270.175781 C 188.441406 273.476562 183.878906 276.207031 178.972656 278.355469 C 177.449219 279.027344 174.003906 280.457031 167.433594 282.167969 C 160.609375 283.9375 153.6875 285.175781 146.675781 285.886719 C 128.914062 287.765625 110.632812 288.191406 103.203125 288.304688 C 88.664062 288.527344 76.394531 287.949219 67.089844 287.28125 C 64.480469 287.09375 50.296875 286.015625 33.207031 282.355469 C 26.550781 280.867188 20.222656 278.511719 14.214844 275.289062 C 9.320312 272.667969 6.546875 270.417969 4.351562 267.386719 C 2.355469 264.605469 1.023438 261.539062 0.347656 258.183594 C 0.292969 254.222656 0.21875 250.242188 0.160156 246.285156 C 0.597656 244.023438 1.3125 241.855469 2.300781 239.777344 C 3.3125 237.703125 4.550781 235.785156 6.027344 234.011719 C 9.765625 229.382812 13.695312 226.316406 15.800781 224.714844 C 20.101562 221.441406 25.109375 217.648438 32.832031 213.1875 C 39.980469 209.058594 45.734375 206.492188 50.148438 204.542969 C 55.84375 202.03125 60.796875 200.136719 64.574219 198.777344 C 66.140625 198.386719 68.726562 197.457031 70.8125 195.152344 C 74.179688 191.453125 74.050781 186.65625 73.976562 183.902344 C 73.894531 181.199219 73.335938 178.59375 72.300781 176.09375 C 70.847656 174.738281 68.855469 172.785156 66.621094 170.332031 C 64.390625 167.875 61.09375 164.269531 58.339844 160.011719 C 52.734375 151.367188 51.265625 142.8125 50.519531 138.164062 C 49.75 133.398438 49.515625 128.609375 49.8125 123.792969 Z M 49.8125 123.792969 " fill-opacity="1" fill-rule="nonzero"/></g><path fill="#7ed957" d="M 29.242188 111.722656 C 28.867188 107 29.613281 103.414062 30.265625 101.21875 C 31.195312 98.039062 32.21875 96.738281 32.925781 96.011719 C 34.414062 94.488281 36.222656 93.726562 36.964844 93.410156 C 37.960938 92.996094 38.992188 92.710938 40.058594 92.554688 C 40.582031 92.519531 41.058594 92.351562 41.488281 92.054688 C 41.925781 91.753906 42.257812 91.363281 42.476562 90.882812 C 42.457031 86.492188 42.980469 74.351562 51.355469 62.488281 C 61.261719 48.46875 75.390625 44.34375 79.28125 43.339844 C 79.925781 44.246094 80.503906 45.195312 81.011719 46.183594 C 81.578125 47.289062 82.042969 48.4375 82.410156 49.625 C 84.742188 60.359375 87.082031 71.09375 89.429688 81.828125 C 89.464844 67.472656 89.507812 53.113281 89.558594 38.746094 C 89.785156 37.683594 90.269531 36.753906 91.011719 35.957031 C 91.882812 35.042969 92.9375 34.453125 94.175781 34.191406 L 104.785156 34.097656 C 105.367188 34.210938 105.917969 34.40625 106.441406 34.679688 C 106.964844 34.957031 107.433594 35.300781 107.855469 35.710938 C 108.277344 36.125 108.632812 36.589844 108.917969 37.105469 C 109.203125 37.625 109.410156 38.167969 109.535156 38.746094 L 109.757812 81.269531 C 110.984375 74.722656 112.382812 67.957031 114.003906 61.003906 C 115.042969 56.519531 116.144531 52.152344 117.261719 47.894531 C 117.476562 46.914062 117.824219 45.984375 118.300781 45.105469 C 118.714844 44.378906 119.199219 43.703125 119.753906 43.078125 C 122.964844 43.945312 126.058594 45.121094 129.035156 46.601562 C 132.011719 48.078125 134.8125 49.835938 137.441406 51.867188 C 140.074219 53.902344 142.476562 56.171875 144.65625 58.679688 C 146.835938 61.183594 148.75 63.882812 150.398438 66.765625 C 155.910156 76.546875 156.652344 85.972656 156.671875 91.125 C 157.023438 91.957031 157.632812 92.515625 158.496094 92.796875 C 160 92.769531 161.441406 93.058594 162.816406 93.671875 C 164.328125 94.359375 165.605469 95.351562 166.648438 96.644531 C 167.171875 97.277344 168.25 98.746094 169.144531 102.410156 C 169.875 105.46875 170.144531 108.566406 169.945312 111.707031 Z M 29.242188 111.722656 " fill-opacity="1" fill-rule="nonzero"/><g clip-path="url(#49c62ef069)"><path fill="#7ed957" d="M 141.425781 28.277344 C 143.070312 26.027344 144.894531 23.929688 146.894531 21.988281 C 148.898438 20.046875 151.050781 18.289062 153.351562 16.710938 C 155.652344 15.136719 158.074219 13.765625 160.609375 12.601562 C 163.144531 11.4375 165.757812 10.496094 168.457031 9.777344 C 169.324219 11.148438 170.085938 12.574219 170.746094 14.054688 C 171.691406 16.132812 172.417969 18.28125 172.925781 20.507812 C 173.6875 24.132812 175.214844 31.4375 175.957031 35.066406 L 178.75 48.414062 L 178.695312 6.339844 C 178.871094 5.128906 179.335938 4.046875 180.089844 3.085938 C 181 1.953125 182.148438 1.179688 183.535156 0.761719 L 193.867188 0.761719 C 194.957031 1.011719 195.917969 1.507812 196.753906 2.246094 C 197.828125 3.222656 198.507812 4.417969 198.800781 5.835938 C 198.851562 19.878906 198.914062 33.917969 198.988281 47.949219 L 202.898438 27.347656 C 203.605469 22.585938 204.96875 18.015625 206.992188 13.644531 C 207.679688 12.15625 208.40625 10.800781 209.132812 9.554688 C 211.5625 10.285156 213.917969 11.199219 216.207031 12.289062 C 221.347656 14.773438 226.003906 17.964844 230.171875 21.863281 C 232.890625 24.324219 235.308594 27.050781 237.429688 30.042969 C 241.675781 36.050781 243.445312 41.421875 243.851562 42.6875 C 245.394531 47.527344 246.074219 52.488281 245.902344 57.5625 C 245.945312 57.933594 246.085938 58.261719 246.328125 58.546875 C 246.707031 59.003906 247.191406 59.25 247.78125 59.292969 C 249.171875 59.46875 250.515625 59.835938 251.804688 60.390625 C 252.816406 60.808594 253.765625 61.34375 254.652344 61.988281 C 256.867188 63.71875 257.628906 66.191406 258.320312 68.496094 C 259.214844 71.601562 259.480469 74.765625 259.121094 77.976562 L 179.066406 78.292969 L 177.632812 76.675781 C 176.191406 69.15625 173.566406 62.070312 169.757812 55.425781 C 160.765625 39.769531 147.847656 31.699219 141.425781 28.277344 Z M 141.425781 28.277344 " fill-opacity="1" fill-rule="nonzero"/></g><g clip-path="url(#1537420a26)"><path fill="#7ed957" d="M 188.617188 90.007812 L 238.828125 90.175781 C 239.179688 96.300781 238.699219 102.363281 237.394531 108.359375 C 236.34375 113.496094 234.648438 118.410156 232.3125 123.105469 C 227.621094 132.417969 221.121094 138.683594 216.171875 142.570312 C 215.871094 143.6875 215.574219 144.839844 215.277344 146.011719 C 214.980469 147.183594 214.625 148.78125 214.347656 150.101562 C 214.328125 151.90625 214.308594 153.707031 214.308594 155.492188 C 214.378906 156.613281 214.613281 157.699219 215.011719 158.746094 C 215.40625 159.796875 215.949219 160.765625 216.636719 161.652344 C 217.320312 162.542969 218.125 163.308594 219.039062 163.957031 C 219.957031 164.605469 220.949219 165.105469 222.015625 165.457031 C 223.746094 165.941406 226.128906 166.613281 228.921875 167.542969 C 231.269531 168.324219 237.953125 170.589844 247.335938 175.21875 C 253.460938 178.25 260.144531 181.597656 268.054688 187.304688 C 268.054688 187.304688 273.75 191.433594 280.34375 198.164062 C 282.335938 200.191406 284.101562 202.160156 285.609375 205.101562 C 286.847656 207.507812 287.679688 210.050781 288.105469 212.722656 L 288.160156 224.066406 C 287.945312 225.472656 287.597656 226.851562 287.121094 228.195312 C 286.644531 229.539062 286.042969 230.828125 285.320312 232.058594 C 284.601562 233.289062 283.769531 234.4375 282.828125 235.511719 C 281.886719 236.585938 280.855469 237.558594 279.726562 238.4375 C 274.03125 242.195312 267.957031 245.183594 261.503906 247.398438 C 254.910156 249.667969 249.679688 250.484375 242.605469 251.621094 C 235.566406 252.753906 228.488281 253.484375 221.363281 253.8125 L 221.253906 244.257812 C 220.675781 239.644531 219.460938 235.207031 217.605469 230.945312 C 216.878906 229.269531 215.148438 225.550781 211.554688 220.71875 C 210.269531 218.96875 205.261719 212.425781 194.054688 204.078125 C 185.171875 197.476562 177.617188 193.609375 170.503906 190.039062 C 163.390625 186.46875 156.765625 183.660156 152.167969 181.859375 C 155.144531 178.554688 157.808594 175.015625 160.167969 171.246094 C 162.523438 167.472656 164.535156 163.527344 166.203125 159.40625 C 167.871094 155.285156 169.167969 151.050781 170.089844 146.703125 C 171.015625 142.355469 171.558594 137.957031 171.714844 133.515625 C 174.023438 133.328125 182.25 132.34375 187.722656 125.707031 C 193.199219 119.070312 192.75 111.019531 192.566406 106.816406 C 192.378906 102.613281 191.355469 98.429688 191.074219 97.351562 C 190.445312 94.839844 189.625 92.390625 188.617188 90.007812 Z M 188.617188 90.007812 " fill-opacity="1" fill-rule="nonzero"/></g></g></g></g></svg>