<svg xmlns="http://www.w3.org/2000/svg" xmlns:xlink="http://www.w3.org/1999/xlink" width="1080" zoomAndPan="magnify" viewBox="0 0 810 809.999993" height="1080" preserveAspectRatio="xMidYMid meet" version="1.0"><defs><clipPath id="f691179f65"><path d="M 294 243 L 518.359375 243 L 518.359375 567 L 294 567 Z M 294 243 " clip-rule="nonzero"/></clipPath></defs><path stroke-linecap="butt" transform="matrix(0.179434, 0, 0, 0.179258, 294.820623, 243.085246)" fill-opacity="1" fill="#0c5cbc" fill-rule="nonzero" stroke-linejoin="miter" d="M 618.891971 63.002276 L 616.889149 102.989165 L 592.898827 178.996943 L 560.897218 258.992514 L 454.900052 455.004544 L 238.900077 740.992524 L 160.898876 832.995057 L 94.892836 930.990177 L 50.896066 1047.006635 L 32.89244 1201.005192 L 56.904532 1347.00637 L 132.902911 1514.99489 L 238.900077 1630.989558 L 376.898852 1719.004298 L 546.899236 1770.998151 L 728.89478 1765.005565 L 876.907664 1716.999506 L 1002.889509 1634.999142 L 1112.892318 1509.002305 L 1184.906823 1367.010711 L 1210.899967 1224.997326 L 1204.891502 1106.997866 L 1156.910858 947.006724 L 1064.889905 806.998131 L 986.910474 717.00039 L 856.901216 547.007078 L 728.89478 348.990255 L 656.902045 196.996491 Z M 618.891971 63.002276 " stroke="#000000" stroke-width="1" stroke-opacity="1" stroke-miterlimit="10"/><g clip-path="url(#f691179f65)"><path stroke-linecap="round" transform="matrix(0.179434, 0, 0, 0.179258, 294.820623, 243.085246)" fill="none" stroke-linejoin="round" d="M 623.39832 1771.499349 C 947.594211 1771.499349 1210.399261 1508.697228 1210.399261 1184.509238 C 1210.399261 1184.509238 1227.401477 984.509415 1040.899583 781.001205 C 1040.899583 781.001205 628.405374 319.506734 622.897614 35.000557 C 617.389854 319.506734 204.895646 781.001205 204.895646 781.001205 C 18.393752 984.509415 35.395967 1184.509238 35.395967 1184.509238 C 35.395967 1508.697228 298.201017 1771.499349 622.396909 1771.499349 " stroke="#000000" stroke-width="70" stroke-opacity="1" stroke-miterlimit="4"/></g></svg>